<?xml version="1.0" standalone="no"?><!DOCTYPE svg PUBLIC "-//W3C//DTD SVG 1.1//EN" "http://www.w3.org/Graphics/SVG/1.1/DTD/svg11.dtd"><svg t="1664262587098" class="icon" viewBox="0 0 1024 1024" version="1.1" xmlns="http://www.w3.org/2000/svg" p-id="4734" xmlns:xlink="http://www.w3.org/1999/xlink" width="200" height="200"><path d="M514.29771913 245.86226313c-99.93605317 0-181.22523186 81.30390766-181.22523187 181.22523186 0 99.93605317 81.30390766 181.22523186 181.22523187 181.22523186S695.52295099 527.02354815 695.52295099 427.08749499c0-99.9213242-81.28917868-181.22523186-181.22523186-181.22523186z m0 318.27828635c-75.55960983 0-137.03832554-61.4787157-137.03832553-137.03832551 0-75.55960983 61.4787157-137.03832554 137.03832553-137.03832553s137.03832554 61.4787157 137.03832553 137.03832553c0 75.55960983-61.46398672 137.03832554-137.03832553 137.03832551z" fill="#d81e06" p-id="4735"></path><path d="M896.47027203 809.52516933l-124.99002904-171.3862807c48.88544738-59.35774418 75.48596499-133.14987776 75.48596499-211.05139364 0-88.85986864-34.59834766-172.40257956-97.43212848-235.23636038-62.83378081-62.83378081-146.37649172-97.43212848-235.23636037-97.43212848-88.85986864 0-172.40257956 34.59834766-235.23636037 97.43212848-62.83378081 62.83378081-97.43212848 146.37649172-97.43212847 235.23636038 0 76.79684321 25.86406917 149.60213589 73.43863833 208.518011l-127.52341169 174.87704633c-4.07992436 5.59700814-4.96366247 12.7847449-2.34190603 19.20657529s8.26295148 10.94362381 15.12665091 12.09248337l72.11303115 12.06302543 33.52313296 64.96948126c3.18145726 6.17143792 9.22033445 10.16298847 16.12822082 10.69323134 0.5155139 0.04418691 1.04575678 0.05891587 1.56127068 0.05891588 6.33345658 0 12.23977305-2.98998066 16.01038905-8.15984871l130.05679433-178.33835397c33.3021984 10.9878107 68.5044338 16.68792162 104.57567833 16.68792163 35.01075879 0 69.19669533-5.39080258 101.62988458-15.75999659l128.61335536 176.36467216c3.75588704 5.1404101 9.63274559 8.08620386 15.92201526 8.08620384 0.50078495 0 1.01629885-0.01472898 1.53181275-0.05891586 6.86369946-0.5155139 12.85838974-4.47760652 16.02511805-10.57539959l33.78825437-64.80746263 72.05411526-12.37233376c6.7900546-1.17831749 12.37233377-5.68538195 14.96463228-12.06302544a19.63371539 19.63371539 0 0 0-2.35663501-19.04455664z m-524.8815314-78.31392698l-105.3415847 144.46172578-24.33225643-47.14742907a19.97100878 19.97100878 0 0 0-14.37547353-10.48702576l-52.33202607-8.74900745 105.34158471-144.4617258 4.31558785 3.13727035c21.59266822 20.59109835 45.48305559 37.94182356 71.08200334 51.83124114l15.64216483 11.41495081z m-145.75787505-304.12374736c0-159.07286282 129.40871968-288.4815825 288.48158253-288.48158252s288.4815825 129.40871968 288.4815825 288.48158252-129.40871968 288.4815825-288.4815825 288.4815825-288.4815825-129.40871968-288.48158253-288.4815825zM796.7109665 817.47881248c-5.99469028 1.04575678-11.26766112 4.87528868-14.13981002 10.33973607L757.97377861 874.98070659l-104.13380928-142.78262334 12.19558617-8.89629714c28.80986293-14.80261362 55.55767024-33.92081509 79.44805759-57.01583815l103.69194021 142.19346459-52.4645868 8.99939993z" fill="#d81e06" p-id="4736"></path></svg>